<?xml version="1.0" encoding="utf-8"?>
<!-- Generator: Adobe Illustrator 18.1.0, SVG Export Plug-In . SVG Version: 6.00 Build 0)  -->
<svg version="1.1" id="Layer_1" xmlns="http://www.w3.org/2000/svg" xmlns:xlink="http://www.w3.org/1999/xlink" x="0px" y="0px"
	 viewBox="0 0 31.4 41" enable-background="new 0 0 31.4 41" xml:space="preserve">
<g opacity="0.5">
	<defs>
		<filter id="Adobe_OpacityMaskFilter" filterUnits="userSpaceOnUse" x="8.7" y="17.4" width="22.7" height="22.9">
			<feFlood  style="flood-color:white;flood-opacity:1" result="back"/>
			<feBlend  in="SourceGraphic" in2="back" mode="normal"/>
		</filter>
	</defs>
	<mask maskUnits="userSpaceOnUse" x="8.7" y="17.4" width="22.7" height="22.9" id="SVGID_1_">
		<g filter="url(#Adobe_OpacityMaskFilter)">
			<image overflow="visible" width="28" height="28" xlink:href="2E7601BD.jpg"  transform="matrix(1 0 0 1 6 14.9948)">
			</image>
		</g>
	</mask>
	<g mask="url(#SVGID_1_)">
		<path fill-rule="evenodd" clip-rule="evenodd" fill="#A8A8A8" d="M19.4,29.2c0,0-8.6,8.4-9.8,9.7c-0.7,0.7-2.2,2.7,1,0.3
			C15,36,27.2,27.7,29.5,25c3.3-3.8,2.4-7.5-2.9-7.5c-4.2-0.1-10,2.6-12.2,5.9C14.1,23.7,10.2,29.6,19.4,29.2z"/>
	</g>
</g>
<path fill-rule="evenodd" clip-rule="evenodd" fill="#FFFFFF" d="M11.7,25.6c0,0-3.5,11.2-3.8,12.1c-1,3.5,0.5,4.4,2.4,1.7
	c2-2.7,13-15.5,14.7-20.7C27.9,9.4,22,0.2,13.3,0C5.9-0.1,0.1,5.6,0,13C0,15.5,1.4,24.7,11.7,25.6z"/>
<path fill-rule="evenodd" clip-rule="evenodd" fill="#0B9A42" d="M13,24.8c0,0-4.1,12.4-4.3,13.2c-0.2,0.8-0.5,3.1,1.4,0.6
	c1.8-2.5,12.4-15.8,13.8-20.7C26.2,10.1,21.7,1.3,13,1.1C6.2,1,0.7,7.1,1.1,13.5C1.2,14.9,1.9,24.4,13,24.8z"/>
<path fill-rule="evenodd" clip-rule="evenodd" fill="#FFFFFF" d="M12.9,4.1c4.9,0,8.8,4,8.8,9c0,5-4,9-8.8,9s-8.8-4-8.8-9
	C4.1,8.1,8,4.1,12.9,4.1z"/>
<path fill-rule="evenodd" clip-rule="evenodd" fill="#0B9A42" d="M12.9,8.8c2.3,0,4.2,1.9,4.2,4.3c0,2.4-1.9,4.3-4.2,4.3
	s-4.2-1.9-4.2-4.3C8.7,10.7,10.6,8.8,12.9,8.8z"/>
</svg>
