<svg viewBox="0 0 123 153.1" xmlns="http://www.w3.org/2000/svg"><path d="m32.27805,53.8l-32.20013,0l0,45.5l32.20013,0l0,-10.60001l-18.90009,0l0,-6l19.30009,0l0,-10.6l-19.30009,0l0,-7.3l19.30009,0l0,-11l-0.4,0z"/><path d="m43.27805,99.3l13.29999,0l0,-19.3l2.29996,0l16.59965,19.3l13.29973,0l-17.19964,-20.60001l12.59973,-15.3l13.29973,0l0,35.9l13.29973,0l0,-35.9l11.99976,0l0,-9.6l-43.19911,0l-20.89957,23.9l-2.29994,0l0,-23.9l-13.3,0l0,45.5l0.2,0z"/><polygon points="61.177938997745514,0 8.377949297428131,45.5 32.278051912784576,45.5 61.177938997745514,20.299999237060547 89.77735763788223,45.5 113.67685562372208,45.5 " fill="#0B9A42"/><polygon points="61.177938997745514,153.10000610351562 113.67685562372208,107.5999984741211 89.77735763788223,107.5999984741211 61.177938997745514,132.8000030517578 32.278051912784576,107.5999984741211 8.377949297428131,107.5999984741211 " fill="#0B9A42"/></svg>