<svg viewBox="0 0 33 33" xmlns="http://www.w3.org/2000/svg"><path id="svg_3" d="m26.33435,27.38168c-1.4,-2.1 -7,-4 -7,-4s0,-3 0,-3c1.3,-1.3 2,-4 2,-4s1,0.3 1,-1s-1,-1 -1,-1l0,-1c0,0 3.7,-8 -5,-8c-8.5,0 -4.9,8 -4.9,8l0,1c0,0 -1,-0.3 -1,1s1,1 1,1s0.7,2.7 2,4c0,0 0,3 0,3s-5.5,1.9 -6.9,4c-1.3,2.1 5.6,5 9.8,5c0,0 0,-0.1 0,-0.3c0,0.2 0,0.3 0,0.3c4.3,0 11.4,-2.9 10,-5z" clip-rule="evenodd" fill-rule="evenodd"/><path id="svg_5" d="m16.43435,1.48168c8.2,0 14.9,6.7 14.9,14.9s-6.6,15 -14.9,15s-14.9,-6.7 -14.9,-14.9s6.7,-15 14.9,-15m0,-1c-8.8,0 -15.9,7.2 -15.9,16s7.1,15.9 15.9,15.9s15.9,-7.1 15.9,-15.9s-7.1,-16 -15.9,-16l0,0z"/></svg>